<svg xmlns="http://www.w3.org/2000/svg" viewBox="0 0 64 64" width="64" height="64">
  <rect width="64" height="64" rx="12" fill="#164e63"/>
  <rect x="16" y="13" width="32" height="28" rx="4" fill="#cffafe"/>
  <rect x="21" y="19" width="9" height="9" rx="4.5" fill="#164e63"/>
  <rect x="34" y="19" width="9" height="9" rx="4.5" fill="#164e63"/>
  <circle cx="25.5" cy="23.5" r="2.5" fill="#22d3ee"/>
  <circle cx="38.5" cy="23.5" r="2.5" fill="#22d3ee"/>
  <rect x="22" y="31" width="20" height="4" rx="2" fill="#a5f3fc"/>
  <line x1="24" y1="33" x2="40" y2="33" stroke="#06b6d4" stroke-width="1.5"/>
  <rect x="27" y="41" width="10" height="10" rx="2" fill="#cffafe"/>
  <rect x="13" y="43" width="14" height="5" rx="2.5" fill="#a5f3fc"/>
  <rect x="37" y="43" width="14" height="5" rx="2.5" fill="#a5f3fc"/>
  <rect x="22" y="51" width="8" height="9" rx="2" fill="#a5f3fc"/>
  <rect x="34" y="51" width="8" height="9" rx="2" fill="#a5f3fc"/>
  <rect x="28" y="7" width="8" height="8" rx="2" fill="#a5f3fc"/>
  <circle cx="26" cy="9" r="1.5" fill="#22d3ee"/>
  <circle cx="38" cy="9" r="1.5" fill="#22d3ee"/>
</svg>
