<svg xmlns="http://www.w3.org/2000/svg" viewBox="0 0 64 64" width="64" height="64">
  <rect width="64" height="64" rx="12" fill="#1e40af"/>
  <rect x="16" y="14" width="32" height="26" rx="4" fill="#bfdbfe"/>
  <rect x="22" y="20" width="8" height="8" rx="2" fill="#1e40af"/>
  <rect x="34" y="20" width="8" height="8" rx="2" fill="#1e40af"/>
  <circle cx="26" cy="24" r="2" fill="#60a5fa"/>
  <circle cx="38" cy="24" r="2" fill="#60a5fa"/>
  <rect x="22" y="32" width="20" height="3" rx="1.5" fill="#93c5fd"/>
  <rect x="28" y="40" width="8" height="10" rx="2" fill="#bfdbfe"/>
  <rect x="12" y="42" width="6" height="8" rx="2" fill="#93c5fd"/>
  <rect x="46" y="42" width="6" height="8" rx="2" fill="#93c5fd"/>
  <rect x="22" y="50" width="8" height="10" rx="2" fill="#93c5fd"/>
  <rect x="34" y="50" width="8" height="10" rx="2" fill="#93c5fd"/>
  <rect x="29" y="8" width="6" height="8" rx="3" fill="#93c5fd"/>
</svg>
