<svg xmlns="http://www.w3.org/2000/svg" viewBox="0 0 64 64" width="64" height="64">
  <rect width="64" height="64" rx="12" fill="#312e81"/>
  <rect x="17" y="15" width="30" height="26" rx="5" fill="#e0e7ff"/>
  <rect x="22" y="20" width="7" height="7" rx="1" fill="#312e81"/>
  <rect x="35" y="20" width="7" height="7" rx="1" fill="#312e81"/>
  <circle cx="25.5" cy="23.5" r="2" fill="#818cf8"/>
  <circle cx="38.5" cy="23.5" r="2" fill="#818cf8"/>
  <path d="M22 31 L26 35 L32 29 L38 35 L42 31" stroke="#a5b4fc" stroke-width="2" fill="none" stroke-linejoin="round"/>
  <rect x="27" y="41" width="10" height="9" rx="2" fill="#e0e7ff"/>
  <rect x="12" y="43" width="15" height="5" rx="2.5" fill="#c7d2fe"/>
  <rect x="37" y="43" width="15" height="5" rx="2.5" fill="#c7d2fe"/>
  <rect x="22" y="50" width="8" height="10" rx="2" fill="#c7d2fe"/>
  <rect x="34" y="50" width="8" height="10" rx="2" fill="#c7d2fe"/>
  <rect x="29" y="8" width="6" height="9" rx="3" fill="#c7d2fe"/>
  <circle cx="32" cy="7" r="2" fill="#818cf8"/>
</svg>
