<svg xmlns="http://www.w3.org/2000/svg" viewBox="0 0 64 64" width="64" height="64">
  <rect width="64" height="64" rx="12" fill="#134e4a"/>
  <rect x="18" y="16" width="28" height="24" rx="3" fill="#ccfbf1"/>
  <rect x="22" y="20" width="8" height="6" rx="1" fill="#134e4a"/>
  <rect x="34" y="20" width="8" height="6" rx="1" fill="#134e4a"/>
  <rect cx="26" cy="23" r="2" fill="#2dd4bf"/>
  <rect cx="38" cy="23" r="2" fill="#2dd4bf"/>
  <circle cx="26" cy="23" r="2" fill="#2dd4bf"/>
  <circle cx="38" cy="23" r="2" fill="#2dd4bf"/>
  <rect x="24" y="30" width="16" height="4" rx="2" fill="#99f6e4"/>
  <rect x="27" y="40" width="10" height="8" rx="2" fill="#ccfbf1"/>
  <rect x="14" y="42" width="13" height="4" rx="2" fill="#99f6e4"/>
  <rect x="37" y="42" width="13" height="4" rx="2" fill="#99f6e4"/>
  <rect x="23" y="48" width="7" height="10" rx="2" fill="#99f6e4"/>
  <rect x="34" y="48" width="7" height="10" rx="2" fill="#99f6e4"/>
  <rect x="28" y="10" width="8" height="8" rx="4" fill="#99f6e4"/>
</svg>
