<svg xmlns="http://www.w3.org/2000/svg" viewBox="0 0 64 64" width="64" height="64">
  <rect width="64" height="64" rx="12" fill="#4c1d95"/>
  <ellipse cx="32" cy="28" rx="18" ry="16" fill="#ede9fe"/>
  <ellipse cx="24" cy="24" rx="5" ry="6" fill="#4c1d95"/>
  <ellipse cx="40" cy="24" rx="5" ry="6" fill="#4c1d95"/>
  <circle cx="24" cy="24" r="2.5" fill="#a78bfa"/>
  <circle cx="40" cy="24" r="2.5" fill="#a78bfa"/>
  <path d="M22 34 Q32 40 42 34" stroke="#7c3aed" stroke-width="2" fill="none" stroke-linecap="round"/>
  <rect x="28" y="44" width="8" height="8" rx="2" fill="#ede9fe"/>
  <rect x="14" y="46" width="14" height="5" rx="2.5" fill="#c4b5fd"/>
  <rect x="36" y="46" width="14" height="5" rx="2.5" fill="#c4b5fd"/>
  <rect x="22" y="52" width="8" height="8" rx="2" fill="#c4b5fd"/>
  <rect x="34" y="52" width="8" height="8" rx="2" fill="#c4b5fd"/>
  <circle cx="32" cy="12" r="4" fill="#c4b5fd"/>
  <line x1="32" y1="8" x2="32" y2="4" stroke="#a78bfa" stroke-width="2" stroke-linecap="round"/>
</svg>
