<svg xmlns="http://www.w3.org/2000/svg" viewBox="0 0 64 64" width="64" height="64">
  <rect width="64" height="64" rx="12" fill="#1f2937"/>
  <rect x="15" y="14" width="34" height="28" rx="3" fill="#d1d5db"/>
  <rect x="10" y="22" width="5" height="12" rx="2" fill="#9ca3af"/>
  <rect x="49" y="22" width="5" height="12" rx="2" fill="#9ca3af"/>
  <rect x="20" y="19" width="10" height="9" rx="2" fill="#1f2937"/>
  <rect x="34" y="19" width="10" height="9" rx="2" fill="#1f2937"/>
  <rect x="22" y="21" width="6" height="5" rx="1" fill="#6b7280"/>
  <rect x="36" y="21" width="6" height="5" rx="1" fill="#6b7280"/>
  <rect x="21" y="31" width="22" height="5" rx="2" fill="#9ca3af"/>
  <rect x="27" y="36" width="4" height="2" rx="1" fill="#6b7280"/>
  <rect x="33" y="36" width="4" height="2" rx="1" fill="#6b7280"/>
  <rect x="28" y="42" width="8" height="9" rx="1" fill="#d1d5db"/>
  <rect x="20" y="51" width="10" height="9" rx="1" fill="#9ca3af"/>
  <rect x="34" y="51" width="10" height="9" rx="1" fill="#9ca3af"/>
  <rect x="30" y="8" width="4" height="8" rx="2" fill="#9ca3af"/>
  <circle cx="32" cy="7" r="3" fill="#6b7280"/>
</svg>
