<svg xmlns="http://www.w3.org/2000/svg" viewBox="0 0 64 64" width="64" height="64">
  <rect width="64" height="64" rx="12" fill="#831843"/>
  <circle cx="32" cy="26" r="16" fill="#fce7f3"/>
  <circle cx="24" cy="22" r="4" fill="#831843"/>
  <circle cx="40" cy="22" r="4" fill="#831843"/>
  <circle cx="24" cy="22" r="1.5" fill="#f472b6"/>
  <circle cx="40" cy="22" r="1.5" fill="#f472b6"/>
  <path d="M24 32 Q32 37 40 32" stroke="#f9a8d4" stroke-width="2" fill="none" stroke-linecap="round"/>
  <circle cx="20" cy="26" r="3" fill="#fce7f3"/>
  <circle cx="44" cy="26" r="3" fill="#fce7f3"/>
  <rect x="28" y="42" width="8" height="9" rx="2" fill="#fce7f3"/>
  <rect x="13" y="44" width="15" height="5" rx="2.5" fill="#fbcfe8"/>
  <rect x="36" y="44" width="15" height="5" rx="2.5" fill="#fbcfe8"/>
  <rect x="21" y="51" width="9" height="9" rx="2" fill="#fbcfe8"/>
  <rect x="34" y="51" width="9" height="9" rx="2" fill="#fbcfe8"/>
  <rect x="29" y="8" width="6" height="4" rx="2" fill="#fbcfe8"/>
  <circle cx="27" cy="8" r="2" fill="#f472b6"/>
  <circle cx="37" cy="8" r="2" fill="#f472b6"/>
</svg>
